# xmcd
#
# Track frame offsets: 
#        150
#        21206
#        53233
#        77267
#        105166
#        122507
#        138600
#        153376
#        174757
#        193947
#        219697
#
# Disc length: 3183 seconds
#
# Revision: 0
# Processed by: cddbd v1.4PL0 Copyright (c) Steve Scherf et al.
# Submitted via: ExactAudioCopy v0.90a11
#
DISCID=880c6d0b
DTITLE=Mary Dukes - Introducing The Divine Ms. Mary
DYEAR=1900
DGENRE=
TTITLE0=Money In My Pocket
TTITLE1=Too Much To Drink
TTITLE2=Nobody's Clown
TTITLE3=Worried Blues
TTITLE4=Mississippi Mister
TTITLE5=I Tried
TTITLE6=You Go Your Way
TTITLE7=I Wish You Would Have
TTITLE8=Justice
TTITLE9=One More Kiss
TTITLE10=I'll Show You
EXTD=
EXTT0=
EXTT1=
EXTT2=
EXTT3=
EXTT4=
EXTT5=
EXTT6=
EXTT7=
EXTT8=
EXTT9=
EXTT10=
PLAYORDER=
